<svg width="283" height="277" viewBox="0 0 283 277" fill="none" xmlns="http://www.w3.org/2000/svg">
<path fill-rule="evenodd" clip-rule="evenodd" d="M217.762 20.7793C216.474 20.0872 215.109 19.8521 213.76 20.09C212.411 20.328 211.11 21.0333 209.946 22.1577L190.571 40.88C189.178 42.2259 188.025 44.1296 187.225 46.4058C186.425 48.6821 186.004 51.2533 186.004 53.8691V155.615V159.402C186.004 159.402 186.007 161.18 186.007 163.189C186.007 165.198 186.008 166.976 186.008 166.976L186 170.763L249.366 124.765C249.366 128.552 249.366 122.757 249.366 124.765V52.5973C249.365 49.4204 249.294 46.279 249.366 46.4853V40.3733L217.762 20.7793ZM217.762 44.448L195.41 53.8766V155.615H217.762V44.448Z" fill="url(#paint0_linear_539_49)"/>
<path fill-rule="evenodd" clip-rule="evenodd" d="M143.718 1.11358C142.311 0.12462 140.818 -0.211387 139.343 0.128635C137.868 0.468656 136.445 1.47665 135.173 3.08339L113.99 29.8383C112.467 31.7615 111.207 34.482 110.332 37.7348C109.457 40.9877 108.997 44.662 108.997 48.4V193.799V199.21C108.997 199.21 109 201.751 109 204.622C109 207.492 109.001 210.033 109.001 210.033L108.992 215.445L178.272 196.076C178.272 201.488 178.272 193.206 178.272 196.076V46.5827C178.271 42.0427 178.193 37.5535 178.272 37.8484V29.1142L143.718 1.11358ZM143.718 34.937L119.28 48.4109V193.799H143.718V34.937Z" fill="url(#paint1_linear_539_49)"/>
<path fill-rule="evenodd" clip-rule="evenodd" d="M71.8903 44.9383C70.6887 44.0463 69.4146 43.7432 68.1554 44.0499C66.8962 44.3566 65.6818 45.2657 64.5955 46.715L46.5121 70.8468C45.2123 72.5815 44.1365 75.0353 43.3897 77.9692C42.6428 80.9031 42.2502 84.2172 42.2503 87.5888V218.733V223.614C42.2503 223.614 42.2526 225.906 42.2526 228.495C42.2526 231.084 42.2535 233.376 42.2535 233.376L42.2461 238.257L101.388 226.21C101.388 231.091 101.388 223.621 101.388 226.21V85.9496C101.387 81.8548 101.32 77.8057 101.388 78.0716V70.1937L71.8903 44.9383ZM71.8903 75.4457L51.0286 87.5985V218.733H71.8903V75.4457Z" fill="url(#paint2_linear_539_49)"/>
<path d="M41.4674 249.508L6.98242 250.465L30.6721 254.053L51.663 255.488L75.9525 254.771L102.041 251.9L131.728 245.441L163.514 234.677L190.203 221.042L213.593 205.732L238.782 182.529L255.874 160.282L266.67 139.71L253.475 155.737L223.788 182.529L185.105 208.124L151.52 224.391L114.336 237.069L79.251 245.441L41.4674 249.508Z" fill="url(#paint3_linear_539_49)"/>
<path d="M41.1643 238.504L13.5755 244.485L37.8651 244.485L67.5522 239.7L99.4485 232.35L135.334 219.914L169.593 202.161L198.506 182.195L224.685 158.368L248.074 127.989L263.967 98.0872L272.064 77.0366L276.446 50.4842L261.568 82.2993L245.376 107.416L214.667 144.137L179.623 173.529L149.417 193.532L116.432 211.713L86.4446 224.391L41.1643 238.504Z" fill="url(#paint4_linear_539_49)"/>
<path d="M27.1987 257.772L2.03421 252.297L23.9312 261.973L48.4288 268.297L82.5518 272.078L117.51 271.267L151.59 265.901L180.337 256.065L206.31 244.582L231.426 231.407L248.791 218.02L258.448 208.039L270.544 192.002L282.627 171.652L246.625 208.314L227.579 220.922L196.629 235.813L164.474 248.234L135.607 256.065L102.041 260.551L70.4883 261.973L27.1987 257.772Z" fill="url(#paint5_linear_539_49)"/>
<rect width="18.7942" height="8.92324" transform="matrix(0.99973 0.0232429 -0.0365107 0.999333 25.8379 247.162)" fill="white"/>
<rect width="18.7649" height="9.87203" transform="matrix(0.996984 -0.0776061 0.121418 0.992601 56.3926 246.476)" fill="white"/>
<rect width="20.3591" height="13.633" transform="matrix(0.980803 -0.195001 0.298217 0.954498 91.3008 241.492)" fill="white"/>
<rect width="20.1136" height="17.1184" transform="matrix(0.958151 -0.286262 0.424988 0.905199 130.238 229.356)" fill="white"/>
<rect width="19.6387" height="17.6697" transform="matrix(0.910163 -0.41425 0.581746 0.81337 167.832 214.597)" fill="white"/>
<rect width="18.8494" height="18.5224" transform="matrix(0.814926 -0.579565 0.745227 0.666811 200.057 194.894)" fill="white"/>
<rect width="18.1597" height="15.7305" transform="matrix(0.708991 -0.705217 0.842364 0.538909 232.281 171.071)" fill="white"/>
<defs>
<linearGradient id="paint0_linear_539_49" x1="198" y1="-51.5" x2="260.177" y2="223.782" gradientUnits="userSpaceOnUse">
<stop offset="0.3125"/>
<stop offset="0.85516" stop-color="#0028EB"/>
</linearGradient>
<linearGradient id="paint1_linear_539_49" x1="108.992" y1="-122.28" x2="254.309" y2="347.783" gradientUnits="userSpaceOnUse">
<stop offset="0.359375"/>
<stop offset="0.85516" stop-color="#0028EB"/>
</linearGradient>
<linearGradient id="paint2_linear_539_49" x1="42.2461" y1="-66.3575" x2="156.633" y2="313.531" gradientUnits="userSpaceOnUse">
<stop offset="0.375"/>
<stop offset="0.901042" stop-color="#0028EB"/>
</linearGradient>
<linearGradient id="paint3_linear_539_49" x1="369.065" y1="145.635" x2="246.227" y2="375.686" gradientUnits="userSpaceOnUse">
<stop stop-color="#28EB00"/>
<stop offset="1" stop-color="#0028EB"/>
<stop offset="1" stop-color="#0028EB"/>
</linearGradient>
<linearGradient id="paint4_linear_539_49" x1="369.206" y1="68.2237" x2="68.8082" y2="300.162" gradientUnits="userSpaceOnUse">
<stop stop-color="#28EB00"/>
<stop offset="1" stop-color="#0028EB"/>
<stop offset="1" stop-color="#0028EB"/>
</linearGradient>
<linearGradient id="paint5_linear_539_49" x1="376.458" y1="196.558" x2="153.452" y2="408.91" gradientUnits="userSpaceOnUse">
<stop stop-color="#28EB00"/>
<stop offset="1" stop-color="#0028EB"/>
<stop offset="1" stop-color="#0028EB"/>
</linearGradient>
</defs>
</svg>
